<svg width="33" height="28" fill="none" xmlns="http://www.w3.org/2000/svg"><path d="M1.702 8.988a.25.25 0 01.25-.238h19.097a.25.25 0 01.25.238l.9 18a.25.25 0 01-.25.262H1.05a.25.25 0 01-.25-.262l.9-18z" stroke="#313133" stroke-width="1.5"/><path fill-rule="evenodd" clip-rule="evenodd" d="M16.466 12c.023-.477.034-.977.034-1.5 0-2.587-.28-4.63-1.032-5.993-.357-.647-.811-1.124-1.397-1.45-.594-.33-1.413-.557-2.571-.557-1.158 0-1.977.226-2.571.557-.586.326-1.04.803-1.397 1.45C6.78 5.87 6.5 7.913 6.5 10.5c0 .523 0 1.022.006 1.5h-1.5C5 11.511 5 11.01 5 10.5 5 5.253 6.083 1 11.5 1S18 5.253 18 10.5c0 .51-.01 1.011-.032 1.5h-1.502z" fill="#313133"/><circle cx="24" cy="9" r="9" fill="#313133"/><path d="M23.556 8.08h.372c.24 0 .472-.02.696-.06.232-.048.436-.124.612-.228a1.294 1.294 0 00.588-1.128c0-.216-.04-.408-.12-.576a1.234 1.234 0 00-.336-.444 1.423 1.423 0 00-.48-.276 1.475 1.475 0 00-.564-.108c-.36 0-.668.092-.924.276-.248.184-.436.44-.564.768l-1.056-.372a2.49 2.49 0 01.996-1.2c.464-.296.996-.444 1.596-.444.352 0 .684.052.996.156.32.096.6.24.84.432s.428.432.564.72c.144.288.216.62.216.996 0 .24-.04.464-.12.672a1.852 1.852 0 01-.312.564 1.86 1.86 0 01-.468.432c-.184.12-.384.208-.6.264v.024c.248.048.476.132.684.252.216.12.4.272.552.456.152.176.272.38.36.612.088.232.132.484.132.756 0 .424-.08.8-.24 1.128-.16.32-.372.588-.636.804-.264.216-.568.38-.912.492a3.39 3.39 0 01-1.056.168c-.672 0-1.264-.152-1.776-.456-.512-.304-.884-.776-1.116-1.416l1.08-.36c.128.368.344.668.648.9.312.232.692.348 1.14.348.216 0 .424-.032.624-.096.208-.072.392-.176.552-.312.16-.136.288-.304.384-.504.096-.2.144-.436.144-.708 0-.296-.064-.544-.192-.744-.128-.2-.296-.36-.504-.48a1.907 1.907 0 00-.684-.264 3.53 3.53 0 00-.756-.084h-.36v-.96z" fill="#fff"/></svg>