<svg width="20" height="20" fill="none" xmlns="http://www.w3.org/2000/svg"><path fill-rule="evenodd" clip-rule="evenodd" d="M17.65.009V0h1.7v2.993c.04 2.534-.207 5.065-1.113 6.994-.46.978-1.103 1.83-1.989 2.434a5.12 5.12 0 01-1.362.657L19.366 20H17.34l-4.303-6.65H4.35V20h-1.7v-6.65H0v-1.7h2.65V5.5c0-1.206.411-2.073 1.031-2.632A2.786 2.786 0 015.5 2.15h12.15V.008zm.002 3.841H5.5c-.153 0-.441.066-.681.282-.213.191-.469.574-.469 1.368v6.15H13c.976 0 1.716-.242 2.29-.633.58-.396 1.045-.982 1.408-1.754.654-1.39.927-3.286.954-5.413z" fill="#000"/></svg>